<svg width="20" height="19" viewBox="0 0 20 19" fill="none" xmlns="http://www.w3.org/2000/svg">
<path d="M9.33605 0.253C9.51905 0.0904881 9.7553 0.000732422 10 0.000732422C10.2448 0.000732422 10.481 0.0904881 10.664 0.253L19.664 8.253C19.8522 8.43172 19.9635 8.67657 19.9744 8.93582C19.9854 9.19508 19.8951 9.44844 19.7227 9.64238C19.5503 9.83632 19.3093 9.95566 19.0506 9.97518C18.7918 9.9947 18.5356 9.91288 18.3361 9.747L18 9.45V17C18 17.5304 17.7893 18.0391 17.4143 18.4142C17.0392 18.7893 16.5305 19 16 19H4.00005C3.46962 19 2.96091 18.7893 2.58584 18.4142C2.21076 18.0391 2.00005 17.5304 2.00005 17V9.45L1.66405 9.747C1.46451 9.91288 1.2083 9.9947 0.949548 9.97518C0.690797 9.95566 0.449766 9.83632 0.277372 9.64238C0.104978 9.44844 0.0147227 9.19508 0.0256717 8.93582C0.0366207 8.67657 0.147917 8.43172 0.336049 8.253L9.33605 0.253ZM4.00005 7.67V17H7.00005V12C7.00005 11.7348 7.10541 11.4804 7.29294 11.2929C7.48048 11.1054 7.73483 11 8.00005 11H12C12.2653 11 12.5196 11.1054 12.7072 11.2929C12.8947 11.4804 13 11.7348 13 12V17H16V7.671L10 2.338L4.00005 7.671V7.67ZM11 17V13H9.00005V17H11Z" fill="#AC754C"/>
</svg>
