<svg width="47" height="44" viewBox="0 0 47 44" fill="none" xmlns="http://www.w3.org/2000/svg">
<g clip-path="url(#clip0)">
<path fill-rule="evenodd" clip-rule="evenodd" d="M45.7308 25.704C45.1593 30.6494 42.5116 35.7275 37.7876 40.9393C41.7531 37.2787 45.2735 32.7031 46.4867 27.4905C48.3321 19.5623 45.6764 10.6183 37.7068 4.80128C29.2851 -1.34574 17.7398 -1.70233 8.86945 4.39425C3.29389 8.51233 0 15.062 0 22.0283C0 24.4829 0.408225 26.8844 1.18166 29.1469V29.146C1.69084 32.6598 3.47913 35.5063 6.54564 37.6857L6.54652 37.6848C11.8315 42.8992 19.5123 45.1971 26.9147 43.3903C33.1803 41.8604 38.4434 37.5945 41.2676 31.7537C45.1523 23.3875 42.2166 13.4153 34.434 8.53887C29.4054 4.98445 22.9484 4.19516 17.2227 6.43382C12.7963 8.29996 10.1951 10.4227 9.4199 12.8003C8.81854 14.6452 9.10385 15.73 11.2389 14.7319C12.4408 14.17 13.3994 13.3834 14.6698 12.8171C18.2885 11.2049 22.2399 10.5643 26.525 10.8979C34.1768 11.7579 39.8981 18.3837 39.6865 26.1411C39.0614 33.718 33.5859 39.9881 26.208 41.5755C13.5733 43.9831 1.29052 34.3029 2.05868 21.1665C2.37385 15.7804 5.12959 11.0191 10.325 6.88067C17.1481 1.68309 24.9737 0.875223 33.801 4.45708C41.4976 8.08406 46.715 17.1838 45.7308 25.7031V25.704ZM2.11223 30.3397C2.81105 33.4605 4.57212 35.8001 7.39633 37.3556C4.78106 34.825 3.01999 32.4863 2.11223 30.3397ZM18.6142 6.70724C15.9963 7.80622 13.539 9.49627 11.2424 11.7774C12.8876 8.91139 15.344 7.22134 18.6142 6.70724Z" fill="#282828"/>
<path fill-rule="evenodd" clip-rule="evenodd" d="M29.1648 39.4264C22.6007 41.8403 17.3175 41.3943 13.3134 38.0877C24.1063 38.7 32.4701 34.6182 38.4029 25.8423C37.7752 32.5007 34.6956 37.0285 29.1639 39.4273L29.1648 39.4264ZM36.7902 29.9878C35.836 33.4511 33.9801 35.7587 31.2217 36.9073C33.8098 34.7819 35.6665 32.4751 36.7902 29.9878Z" fill="#282828"/>
<path fill-rule="evenodd" clip-rule="evenodd" d="M37.5172 22.3091C34.5578 26.4555 31.7845 29.4825 29.1964 31.3903C31.9363 30.5063 34.7096 27.4792 37.5172 22.3091Z" fill="#282828"/>
<path fill-rule="evenodd" clip-rule="evenodd" d="M36.9473 25.8413C33.4208 29.7028 30.5097 32.4131 28.2148 33.9739C30.6405 33.1103 33.5507 30.4 36.9473 25.8413Z" fill="#282828"/>
<path fill-rule="evenodd" clip-rule="evenodd" d="M19.7598 29.5841C17.6055 30.9955 15.7777 32.8837 14.2782 35.2489C17.8583 33.0173 20.2181 31.5458 21.3576 30.8362C23.6015 29.4372 25.7015 28.225 24.9175 32.3298C24.6383 33.788 24.2459 35.033 23.7385 36.0621C25.2344 33.9561 25.9964 31.9794 26.0254 30.131C26.0781 26.7367 21.3207 28.5612 19.7598 29.5841Z" fill="#282828"/>
<path fill-rule="evenodd" clip-rule="evenodd" d="M13.3134 29.9073C16.8522 30.7364 19.0575 28.7437 21.6008 26.9227C23.346 25.6724 25.3872 25.0309 27.725 24.9964C25.424 23.8912 23.0616 24.2151 20.6377 25.9697C17.9768 27.8253 16.6397 29.1171 13.3134 29.9082V29.9073Z" fill="#282828"/>
<path fill-rule="evenodd" clip-rule="evenodd" d="M20.5192 21.646C21.3137 21.646 21.9581 22.2955 21.9581 23.0971C21.9581 23.8979 21.3137 24.5483 20.5192 24.5483C19.7238 24.5483 19.0795 23.8988 19.0795 23.0971C19.0795 22.2955 19.7238 21.646 20.5192 21.646Z" fill="#282828"/>
</g>
<defs>
<clipPath id="clip0">
<rect width="47" height="44" fill="white"/>
</clipPath>
</defs>
</svg>
