<svg width="27" height="19" viewBox="0 0 27 19" fill="none" xmlns="http://www.w3.org/2000/svg">
<path fill-rule="evenodd" clip-rule="evenodd" d="M9.32486 2.59081C8.41585 2.59081 7.54408 2.95465 6.90131 3.60229C6.25855 4.24993 5.89745 5.12832 5.89745 6.04422C5.89745 6.96012 6.25855 7.83851 6.90131 8.48615C7.54408 9.13379 8.41585 9.49764 9.32486 9.49764C10.2339 9.49764 11.1056 9.13379 11.7484 8.48615C12.3912 7.83851 12.7523 6.96012 12.7523 6.04422C12.7523 5.12832 12.3912 4.24993 11.7484 3.60229C11.1056 2.95465 10.2339 2.59081 9.32486 2.59081ZM3.32688 6.04422C3.32676 5.04251 3.57376 4.05648 4.04566 3.17481C4.51757 2.29314 5.19958 1.54349 6.03035 0.99328C6.86112 0.44307 7.8146 0.109558 8.80503 0.0227418C9.79545 -0.0640748 10.7918 0.0985266 11.7044 0.495921C12.6169 0.893316 13.4172 1.51304 14.0331 2.29935C14.649 3.08567 15.0613 4.01391 15.2329 5.00059C15.4044 5.98728 15.3299 7.00145 15.0159 7.95191C14.702 8.90236 14.1585 9.75928 13.4343 10.4456C14.7999 11.1131 15.9856 12.1027 16.8907 13.3303C17.7958 14.5579 18.3937 15.9874 18.6337 17.4975C18.6602 17.6655 18.6535 17.8371 18.6141 18.0026C18.5747 18.168 18.5034 18.324 18.4042 18.4616C18.305 18.5993 18.1798 18.7159 18.0359 18.8048C17.8919 18.8937 17.732 18.9532 17.5652 18.9798C17.3985 19.0065 17.2281 18.9998 17.0639 18.9601C16.8998 18.9204 16.7449 18.8485 16.6083 18.7486C16.4717 18.6486 16.356 18.5225 16.2677 18.3774C16.1795 18.2324 16.1205 18.0713 16.094 17.9032C15.8347 16.2825 15.011 14.8078 13.7706 13.7433C12.5302 12.6788 10.9542 12.0942 9.32486 12.0942C7.69555 12.0942 6.11948 12.6788 4.87908 13.7433C3.63869 14.8078 2.81503 16.2825 2.55572 17.9032C2.52916 18.0713 2.47002 18.2324 2.38167 18.3774C2.29332 18.5224 2.17749 18.6484 2.04079 18.7483C1.9041 18.8482 1.74922 18.92 1.58499 18.9596C1.42076 18.9991 1.2504 19.0057 1.08364 18.979C0.91688 18.9522 0.756984 18.8926 0.61308 18.8036C0.469176 18.7146 0.344083 18.5979 0.244943 18.4602C0.145804 18.3224 0.0745592 18.1664 0.0352771 18.0009C-0.0040051 17.8354 -0.0105554 17.6638 0.0160002 17.4957C0.256493 15.9863 0.854646 14.5575 1.75975 13.3305C2.66486 12.1035 3.85023 11.1145 5.21539 10.4473C4.61821 9.88276 4.14246 9.20065 3.81761 8.44325C3.49276 7.68586 3.32574 6.86932 3.32688 6.04422ZM18.7503 3.45416C18.4094 3.45416 18.0825 3.5906 17.8414 3.83347C17.6004 4.07633 17.465 4.40573 17.465 4.74919C17.465 5.09265 17.6004 5.42205 17.8414 5.66492C18.0825 5.90778 18.4094 6.04422 18.7503 6.04422C19.3301 6.04425 19.8929 6.24181 20.3472 6.60479C20.8016 6.96778 21.1208 7.47488 21.253 8.04373C21.3852 8.61257 21.3226 9.20974 21.0755 9.73825C20.8283 10.2668 20.4111 10.6955 19.8916 10.955C19.6773 11.0623 19.4971 11.2279 19.3711 11.4329C19.2452 11.6379 19.1785 11.8742 19.1787 12.1153V12.7231C19.1783 13.014 19.2752 13.2966 19.4536 13.5252C19.6321 13.7539 19.8817 13.9154 20.1624 13.9836C22.2188 14.4826 23.8674 16.0557 24.4843 18.0794C24.5333 18.2426 24.6137 18.3946 24.7211 18.5264C24.8284 18.6583 24.9606 18.7674 25.11 18.8477C25.2593 18.9279 25.4229 18.9777 25.5914 18.994C25.7599 19.0104 25.9299 18.9931 26.0917 18.943C26.2536 18.893 26.404 18.8113 26.5344 18.7025C26.6647 18.5937 26.7725 18.4601 26.8515 18.3093C26.9305 18.1584 26.9791 17.9933 26.9946 17.8235C27.0101 17.6537 26.9921 17.4824 26.9418 17.3196C26.5988 16.1982 26.033 15.1589 25.2788 14.2648C24.5246 13.3707 23.5978 12.6406 22.5547 12.1188C23.2247 11.3762 23.6662 10.4535 23.8255 9.46285C23.9848 8.47221 23.8551 7.45626 23.4521 6.5385C23.0491 5.62073 22.3903 4.84067 21.5556 4.29312C20.7209 3.74557 19.7463 3.45411 18.7503 3.45416Z" fill="#AC754C"/>
</svg>
